<svg xmlns="http://www.w3.org/2000/svg" viewBox="0 0 960 640">
  <defs>
    <radialGradient id="bg" cx="48%" cy="38%" r="85%">
      <stop offset="0%" stop-color="#ffe5d0" stop-opacity="0.95"/>
      <stop offset="45%" stop-color="#ffbfa3" stop-opacity="0.72"/>
      <stop offset="100%" stop-color="#f7f2eb" stop-opacity="0.88"/>
    </radialGradient>
    <linearGradient id="wash" x1="0%" y1="0%" x2="100%" y2="100%">
      <stop offset="0%" stop-color="#ff9f80" stop-opacity="0.32"/>
      <stop offset="50%" stop-color="#f4c06a" stop-opacity="0.28"/>
      <stop offset="100%" stop-color="#8cc7c8" stop-opacity="0.3"/>
    </linearGradient>
  </defs>
  <rect width="960" height="640" fill="url(#bg)"/>
  <rect width="960" height="640" fill="url(#wash)"/>
  <g opacity="0.4" stroke="#c26a4e" stroke-width="7" stroke-linecap="round" fill="none">
    <path d="M140 500 Q220 430 330 440 T500 430 T670 440 T820 420"/>
    <path d="M200 520 Q270 470 360 480 T510 470 T680 480 T820 470"/>
  </g>
  <g opacity="0.48" fill="#c26a4e">
    <rect x="230" y="360" width="110" height="180" rx="18" fill-opacity="0.3"/>
    <rect x="360" y="350" width="90" height="190" rx="18" fill-opacity="0.3"/>
    <rect x="470" y="330" width="70" height="210" rx="16" fill-opacity="0.3"/>
    <rect x="560" y="350" width="90" height="190" rx="18" fill-opacity="0.3"/>
    <rect x="680" y="360" width="110" height="180" rx="18" fill-opacity="0.3"/>
  </g>
  <g opacity="0.35" fill="#fdf4ec">
    <rect x="250" y="395" width="24" height="44" rx="8"/>
    <rect x="288" y="395" width="24" height="44" rx="8"/>
    <rect x="380" y="385" width="22" height="42" rx="8"/>
    <rect x="410" y="385" width="22" height="42" rx="8"/>
    <rect x="486" y="375" width="20" height="40" rx="8"/>
    <rect x="514" y="375" width="20" height="40" rx="8"/>
    <rect x="580" y="385" width="22" height="42" rx="8"/>
    <rect x="610" y="385" width="22" height="42" rx="8"/>
    <rect x="702" y="395" width="24" height="44" rx="8"/>
    <rect x="740" y="395" width="24" height="44" rx="8"/>
  </g>
  <g opacity="0.5" stroke="#e48e4f" stroke-width="8" stroke-linecap="round">
    <path d="M470 330 Q490 260 500 200"/>
    <path d="M500 200 Q520 230 560 240" fill="none"/>
  </g>
  <text x="80" y="120" font-family="'Palatino Linotype', 'Times New Roman', serif" font-size="46" fill="#b75f4e" fill-opacity="0.88">Barcelona</text>
  <text x="80" y="165" font-family="'Palatino Linotype', 'Times New Roman', serif" font-size="28" fill="#b75f4e" fill-opacity="0.82">高第色彩的午後散步</text>
</svg>
