<svg xmlns="http://www.w3.org/2000/svg" viewBox="0 0 960 640">
  <defs>
    <radialGradient id="bg" cx="52%" cy="35%" r="85%">
      <stop offset="0%" stop-color="#dfe8ff" stop-opacity="0.95"/>
      <stop offset="45%" stop-color="#b5c8ec" stop-opacity="0.72"/>
      <stop offset="100%" stop-color="#f2f4f8" stop-opacity="0.88"/>
    </radialGradient>
    <linearGradient id="wash" x1="0%" y1="0%" x2="100%" y2="0%">
      <stop offset="0%" stop-color="#95b0d6" stop-opacity="0.34"/>
      <stop offset="50%" stop-color="#8fd1e2" stop-opacity="0.28"/>
      <stop offset="100%" stop-color="#f2d6a6" stop-opacity="0.32"/>
    </linearGradient>
  </defs>
  <rect width="960" height="640" fill="url(#bg)"/>
  <rect width="960" height="640" fill="url(#wash)"/>
  <g opacity="0.42" stroke="#3c4e6e" stroke-width="7" stroke-linecap="round" fill="none">
    <path d="M150 500 Q230 420 340 430 T520 420 T700 430 T820 410"/>
    <path d="M200 525 Q280 445 380 455 T520 445 T680 455 T820 440"/>
  </g>
  <g opacity="0.5" fill="#3c4e6e">
    <rect x="230" y="360" width="110" height="180" rx="18" fill-opacity="0.3"/>
    <rect x="350" y="330" width="90" height="210" rx="16" fill-opacity="0.3"/>
    <rect x="450" y="320" width="70" height="220" rx="16" fill-opacity="0.3"/>
    <rect x="540" y="330" width="90" height="210" rx="16" fill-opacity="0.3"/>
    <rect x="660" y="360" width="110" height="180" rx="18" fill-opacity="0.3"/>
  </g>
  <g opacity="0.35" fill="#eef2fa">
    <rect x="248" y="395" width="24" height="44" rx="7"/>
    <rect x="286" y="395" width="24" height="44" rx="7"/>
    <rect x="370" y="375" width="22" height="42" rx="7"/>
    <rect x="400" y="375" width="22" height="42" rx="7"/>
    <rect x="462" y="365" width="20" height="40" rx="7"/>
    <rect x="490" y="365" width="20" height="40" rx="7"/>
    <rect x="558" y="375" width="22" height="42" rx="7"/>
    <rect x="588" y="375" width="22" height="42" rx="7"/>
    <rect x="680" y="395" width="24" height="44" rx="7"/>
    <rect x="718" y="395" width="24" height="44" rx="7"/>
  </g>
  <g opacity="0.5" stroke="#d88a47" stroke-width="8" stroke-linecap="round">
    <path d="M486 320 Q500 250 500 190"/>
    <path d="M500 190 Q520 210 560 220" fill="none"/>
  </g>
  <text x="80" y="120" font-family="'Palatino Linotype', 'Times New Roman', serif" font-size="46" fill="#34455f" fill-opacity="0.9">New York</text>
  <text x="80" y="165" font-family="'Palatino Linotype', 'Times New Roman', serif" font-size="28" fill="#34455f" fill-opacity="0.82">薄霧中的摩天樓輪廓</text>
</svg>
