<svg xmlns="http://www.w3.org/2000/svg" viewBox="0 0 960 640">
  <defs>
    <radialGradient id="bg" cx="50%" cy="40%" r="80%">
      <stop offset="0%" stop-color="#ffd9c2" stop-opacity="0.95"/>
      <stop offset="45%" stop-color="#f6b6c6" stop-opacity="0.7"/>
      <stop offset="100%" stop-color="#f2f0e9" stop-opacity="0.85"/>
    </radialGradient>
    <linearGradient id="wash" x1="0%" y1="0%" x2="100%" y2="100%">
      <stop offset="0%" stop-color="#f6a192" stop-opacity="0.35"/>
      <stop offset="50%" stop-color="#d6b6e0" stop-opacity="0.28"/>
      <stop offset="100%" stop-color="#9dbad7" stop-opacity="0.3"/>
    </linearGradient>
  </defs>
  <rect width="960" height="640" fill="url(#bg)"/>
  <rect width="960" height="640" fill="url(#wash)"/>
  <g opacity="0.35" stroke="#6d5a7c" stroke-width="6" stroke-linecap="round">
    <path d="M180 520 Q210 360 320 340 T480 360 T620 330 T760 360" fill="none"/>
    <path d="M260 520 Q280 410 350 410 T440 430 T520 400 T640 420" fill="none"/>
  </g>
  <g opacity="0.42" fill="#7b6d83">
    <path d="M430 230 Q460 150 480 230 L500 310 H460 Z" fill-opacity="0.28"/>
    <rect x="420" y="310" width="110" height="120" rx="18" fill-opacity="0.3"/>
    <rect x="500" y="320" width="20" height="110" fill="#5f5061" fill-opacity="0.4"/>
  </g>
  <g opacity="0.55" fill="#42526b">
    <rect x="260" y="360" width="70" height="150" rx="14" fill-opacity="0.32"/>
    <rect x="330" y="350" width="70" height="160" rx="14" fill-opacity="0.32"/>
    <rect x="600" y="350" width="80" height="170" rx="14" fill-opacity="0.32"/>
  </g>
  <g opacity="0.35" fill="#f6f2ec">
    <rect x="270" y="380" width="20" height="38" rx="6"/>
    <rect x="306" y="380" width="20" height="38" rx="6"/>
    <rect x="346" y="380" width="20" height="38" rx="6"/>
    <rect x="386" y="380" width="20" height="38" rx="6"/>
    <rect x="614" y="380" width="24" height="40" rx="8"/>
    <rect x="650" y="380" width="24" height="40" rx="8"/>
  </g>
  <text x="80" y="120" font-family="'Palatino Linotype', 'Times New Roman', serif" font-size="46" fill="#5b4a62" fill-opacity="0.85">Paris</text>
  <text x="80" y="165" font-family="'Palatino Linotype', 'Times New Roman', serif" font-size="28" fill="#5b4a62" fill-opacity="0.8">霞光下的塞納河街景</text>
</svg>
