<svg xmlns="http://www.w3.org/2000/svg" viewBox="0 0 960 640">
  <defs>
    <radialGradient id="bg" cx="45%" cy="35%" r="85%">
      <stop offset="0%" stop-color="#ffe7c2" stop-opacity="0.95"/>
      <stop offset="50%" stop-color="#f2c89d" stop-opacity="0.7"/>
      <stop offset="100%" stop-color="#f7f1e1" stop-opacity="0.85"/>
    </radialGradient>
    <linearGradient id="wash" x1="0%" y1="0%" x2="0%" y2="100%">
      <stop offset="0%" stop-color="#e2b07e" stop-opacity="0.32"/>
      <stop offset="100%" stop-color="#8aa2a9" stop-opacity="0.28"/>
    </linearGradient>
  </defs>
  <rect width="960" height="640" fill="url(#bg)"/>
  <rect width="960" height="640" fill="url(#wash)"/>
  <g opacity="0.4" stroke="#745b3b" stroke-width="8" stroke-linecap="round" fill="none">
    <path d="M150 500 Q200 380 320 380 T480 400 T640 370 T820 400"/>
    <path d="M220 520 Q260 430 360 430 T480 450 T600 420 T720 440"/>
  </g>
  <g opacity="0.5" fill="#8f6f47">
    <rect x="240" y="360" width="120" height="170" rx="18" fill-opacity="0.32"/>
    <rect x="390" y="340" width="160" height="190" rx="18" fill-opacity="0.32"/>
    <rect x="590" y="360" width="120" height="170" rx="18" fill-opacity="0.32"/>
    <rect x="430" y="300" width="80" height="50" rx="12" fill-opacity="0.26"/>
  </g>
  <g opacity="0.38" fill="#f6f0e7">
    <rect x="260" y="390" width="26" height="44" rx="8"/>
    <rect x="300" y="390" width="26" height="44" rx="8"/>
    <rect x="620" y="390" width="26" height="44" rx="8"/>
    <rect x="660" y="390" width="26" height="44" rx="8"/>
    <rect x="440" y="370" width="30" height="50" rx="10"/>
    <rect x="490" y="370" width="30" height="50" rx="10"/>
  </g>
  <g opacity="0.4" stroke="#8f6f47" stroke-width="6" stroke-linecap="round">
    <path d="M420 320 H540"/>
    <path d="M460 310 V340"/>
    <path d="M500 310 V340"/>
  </g>
  <text x="80" y="120" font-family="'Palatino Linotype', 'Times New Roman', serif" font-size="46" fill="#705635" fill-opacity="0.85">Rome</text>
  <text x="80" y="165" font-family="'Palatino Linotype', 'Times New Roman', serif" font-size="28" fill="#705635" fill-opacity="0.82">夕陽下的石柱與拱門</text>
</svg>
