<svg xmlns="http://www.w3.org/2000/svg" viewBox="0 0 960 640">
  <defs>
    <radialGradient id="bg" cx="55%" cy="30%" r="85%">
      <stop offset="0%" stop-color="#d6f0ff" stop-opacity="0.95"/>
      <stop offset="45%" stop-color="#b7d7f5" stop-opacity="0.72"/>
      <stop offset="100%" stop-color="#f1f6fb" stop-opacity="0.88"/>
    </radialGradient>
    <linearGradient id="wash" x1="0%" y1="0%" x2="100%" y2="100%">
      <stop offset="0%" stop-color="#a5c1f0" stop-opacity="0.36"/>
      <stop offset="50%" stop-color="#9ce0d2" stop-opacity="0.28"/>
      <stop offset="100%" stop-color="#f2d0e3" stop-opacity="0.32"/>
    </linearGradient>
  </defs>
  <rect width="960" height="640" fill="url(#bg)"/>
  <rect width="960" height="640" fill="url(#wash)"/>
  <g opacity="0.42" stroke="#3f637d" stroke-width="7" stroke-linecap="round" fill="none">
    <path d="M150 500 Q230 420 340 430 T520 420 T700 430 T820 420"/>
    <path d="M200 530 Q280 450 380 460 T520 450 T680 460 T800 450"/>
  </g>
  <g opacity="0.48" fill="#3f637d">
    <rect x="240" y="360" width="110" height="170" rx="18" fill-opacity="0.3"/>
    <rect x="370" y="330" width="90" height="200" rx="18" fill-opacity="0.3"/>
    <rect x="470" y="320" width="60" height="210" rx="14" fill-opacity="0.3"/>
    <rect x="550" y="340" width="100" height="190" rx="18" fill-opacity="0.3"/>
    <rect x="670" y="360" width="110" height="170" rx="18" fill-opacity="0.3"/>
  </g>
  <g opacity="0.35" fill="#eef7ff">
    <rect x="260" y="390" width="24" height="44" rx="7"/>
    <rect x="300" y="390" width="24" height="44" rx="7"/>
    <rect x="390" y="380" width="22" height="42" rx="7"/>
    <rect x="420" y="380" width="22" height="42" rx="7"/>
    <rect x="560" y="380" width="24" height="44" rx="7"/>
    <rect x="600" y="380" width="24" height="44" rx="7"/>
    <rect x="690" y="390" width="24" height="44" rx="7"/>
    <rect x="730" y="390" width="24" height="44" rx="7"/>
  </g>
  <g opacity="0.5" stroke="#d45c73" stroke-width="8" stroke-linecap="round">
    <path d="M470 320 Q500 250 520 180"/>
    <circle cx="520" cy="170" r="22" fill="#d45c73" fill-opacity="0.6"/>
  </g>
  <text x="80" y="120" font-family="'Palatino Linotype', 'Times New Roman', serif" font-size="46" fill="#2f5671" fill-opacity="0.9">Tokyo</text>
  <text x="80" y="165" font-family="'Palatino Linotype', 'Times New Roman', serif" font-size="28" fill="#2f5671" fill-opacity="0.82">霓虹與小巷的雨後光</text>
</svg>
